<?xml version="1.0" encoding="utf-8"?>
<!-- Generator: Adobe Illustrator 23.1.0, SVG Export Plug-In . SVG Version: 6.00 Build 0)  -->
<svg version="1.1" xmlns="http://www.w3.org/2000/svg" xmlns:xlink="http://www.w3.org/1999/xlink" x="0px" y="0px"
	 viewBox="0 0 345.3 369.6" style="enable-background:new 0 0 345.3 369.6;" xml:space="preserve">
<style type="text/css">
	.st0{display:none;}
	.st1{fill:#141313;}
	.st2{fill:#FFFFFF;}
	.st3{fill:#141313;stroke:#141313;stroke-width:6;stroke-miterlimit:10;}
	.st4{fill:#666262;}
	.st5{fill:#141313;stroke:#141313;stroke-miterlimit:10;}
</style>
<g id="Слой_1" class="st0">
	
		<image style="display:inline;overflow:visible;" width="2480" height="1980" xlink:href="../работы в крита/голубь уруру.png"  transform="matrix(0.4134 0 0 0.4048 -346.0492 -135.4864)">
	</image>
</g>
<g id="Слой_2">
	<path class="st1" d="M124.4,168c-4.1-1-10.2-2.7-17.1-5.7c-11.3-4.9-25.4-10.9-33.5-25.4c-5.3-9.4-5.6-17.9-5.6-19.7
		c-0.1-3-0.4-16.6,9.1-26.1c7.1-7.1,15.9-8.2,24.1-9.1c22.1-2.5,40.2,5.8,54,12.3c6.4,3,17.3,8.6,29.9,18.2
		c11.5,8.7,41.1,33.9,51.8,72c1.6,5.5,2.2,9.4,0.4,13.1c-9.3,19.2-76.4,18.4-104.6-15.8C128.3,176.1,125.7,170.9,124.4,168z"/>
	<path class="st1" d="M80.8,267.9c-0.1,12.3,6.2,26.9,14.2,31.6c1,0.6,4.3,2.4,8.3,5.5c4.9,3.9,7.9,7.4,8.3,7.9
		c4.2,4.8,58,49.4,119.9,29.3c53.6-17.4,84-74,78.3-98.5c-0.8-3.6-4.1-13.8-6.3-29.7c-2.5-17.8-0.3-19-2.8-23.7
		c-6.8-13-29-13.7-72-14.6c-42.1-0.9-33.4,4-55.8,1.6c-13.6-1.5-33.3-5-40.1,4.4c-1.4,2-1.7,3.7-5,8.7c-4.6,6.9-9,11-11.1,13.1
		c-1.8,1.8-4.6,4.8-15.8,24.1C87.5,250.6,80.8,262.2,80.8,267.9z"/>
	<path class="st1" d="M248.1,181.3c-2.6-1.7-3.5-4.7-5-10.8c-2.1-8.1-3.2-12.4-0.7-15.9c0.1-0.2,2.7-3.8,6.2-3.5
		c2.9,0.2,4.8,3.1,5.5,4.3c2.5,3.8,1.3,6.2,2.4,14c1.1,7.8,2.8,10,1.2,11.8C255.8,183.5,251.1,183.2,248.1,181.3z"/>
	<path class="st1" d="M258.1,179.3c-2.9-3.4-3.3-8.6-4-18.8c-0.9-13.7-1.3-20.9,2.5-25.9c0.2-0.3,4.2-5.3,8.5-3.9
		c3.6,1.2,5.3,6.3,6,8.4c2.2,6.8,0.3,10.4,0,23.3c-0.3,12.9,1.4,16.9-1,19.4C267.2,184.9,261.4,183.2,258.1,179.3z"/>
	<path class="st1" d="M271.2,179.2c-2.4-4.5-2.2-10.9-1.5-23.4c0.9-16.8,1.4-25.7,5.9-31.4c0.2-0.3,4.8-6.1,8.9-3.9
		c3.4,1.9,4.4,8.2,4.8,10.9c1.3,8.6-1,12.7-3,28.5c-2,15.8-0.8,20.7-3.5,23.6C279.6,187,274,184.3,271.2,179.2z"/>
	<path class="st1" d="M283.6,191.2c-1.7-4.7-0.8-11.1,1.2-23.7c2.7-16.9,4.1-25.8,8.8-31.1c0.2-0.3,5.1-5.7,8.6-3.2
		c2.9,2.1,3.1,8.6,3.2,11.4c0.3,8.7-2.3,12.7-5.9,28.4c-3.6,15.7-3,20.8-5.8,23.5C290.3,199.7,285.5,196.5,283.6,191.2z"/>
	<path class="st1" d="M289.1,205.2c-1.1-4.9,0.6-11.1,4.1-23.3c4.7-16.4,7.3-25.1,12.5-29.8c0.3-0.2,5.7-5.1,8.9-2.1
		c2.6,2.5,2,8.9,1.8,11.7c-0.8,8.7-3.9,12.3-9.3,27.5c-5.5,15.2-5.5,20.3-8.7,22.6C294.8,214.5,290.4,210.8,289.1,205.2z"/>
	<g>
		<g>
			<path class="st2" d="M227.5,225c7.8-5.5,16.6-9.6,25.8-12c4.5-1.2,9.2-2,13.9-2.3c2.4-0.2,4.7-0.3,7.1-0.2c2,0,4.6-0.2,6.5,0.6
				c3,1.3,0.3,4.7-1.1,6.2c-1.7,1.9-3.9,3.3-6.3,4.2c-0.2,0.1-1.1,0.4-0.9,0.8c0.2,0.4,1.3,0.1,1.5,0c3.7-1,15.4-1.7,13.3,5.3
				c-0.7,2.5-2.7,4.8-4.5,6.6c-1.9,2-4.1,3.7-6.5,5c-0.2,0.1-1.1,0.7-0.4,0.8c7.4,1,18.5,5.3,16.1,14.9c-1.2,4.7-5.1,8.3-8.9,11
				c-4.4,3.2-9.1,5.9-14,8.3c-5.6,2.7-11.4,4.7-17.3,6.2c-0.3,0.1-1.4,0.4-1.3,0.8c0.1,0.4,1.4,0.1,1.6,0.1
				c11.3-2.9,22.2-7.7,31.8-14.3c4.1-2.8,8.3-6.1,10.3-10.7c1.8-4.2,1-8.8-2.4-12c-3.6-3.4-8.8-4.8-13.5-5.5
				c-0.1,0.3-0.2,0.5-0.4,0.8c2.9-1.6,5.5-3.5,7.8-5.9c2-2.1,4.4-4.9,4.7-7.9c0.3-3.3-3-4.6-5.7-5c-3.7-0.6-7.4-0.3-11,0.6
				c0.2,0.3,0.4,0.5,0.6,0.8c2.4-0.8,4.6-2.1,6.5-3.7c1.6-1.3,3.9-3.5,4.2-5.7c0.3-2.2-2.1-3-3.8-3.2c-2.7-0.3-5.5-0.3-8.3-0.2
				c-10.8,0.3-21.5,2.6-31.5,6.7c-5.7,2.4-11.2,5.4-16.2,8.9c-0.5,0.3-0.3,0.5,0.2,0.6C226.1,225.6,227,225.3,227.5,225L227.5,225z"
				/>
		</g>
	</g>
	<g>
		<g>
			<path class="st2" d="M247,158.1c0,5.7,1.3,11.4,3.8,16.5c0.3,0.6,1.1,0.1,0.9-0.5c-2.4-5-3.6-10.5-3.7-16
				C248,157.5,247,157.5,247,158.1L247,158.1z"/>
		</g>
	</g>
	<g>
		<g>
			<path class="st2" d="M247.1,161.8c-1.3-0.5-2.6-1-3.8-1.7c-0.6-0.3-1.1,0.6-0.5,0.9c1.3,0.7,2.7,1.3,4.1,1.8
				c0.3,0.1,0.5-0.1,0.6-0.3C247.5,162.1,247.3,161.9,247.1,161.8L247.1,161.8z"/>
		</g>
	</g>
	<g>
		<g>
			<path class="st2" d="M249.1,167.6c-1.9-0.5-3.6-1.5-4.9-3.1c-0.2-0.2-0.5-0.2-0.7,0c-0.2,0.2-0.2,0.5,0,0.7
				c1.4,1.6,3.3,2.8,5.3,3.3C249.4,168.7,249.7,167.7,249.1,167.6L249.1,167.6z"/>
		</g>
	</g>
	<g>
		<g>
			<path class="st2" d="M250.3,172.4c-1.6,0.2-3.3,0-4.8-0.5c-0.6-0.2-0.9,0.8-0.3,1c1.6,0.5,3.4,0.7,5.1,0.6c0.3,0,0.5-0.2,0.5-0.5
				C250.8,172.7,250.6,172.4,250.3,172.4L250.3,172.4z"/>
		</g>
	</g>
	<g>
		<g>
			<path class="st2" d="M261.2,140.5c-0.7,9.3-0.4,18.7,1,27.9c0.4,2.6,0.9,5.3,1.5,7.9c0.1,0.6,1.1,0.4,1-0.3
				c-2-9.1-2.9-18.4-2.8-27.6c0-2.6,0.2-5.2,0.4-7.9C262.2,139.9,261.2,139.9,261.2,140.5L261.2,140.5z"/>
		</g>
	</g>
	<g>
		<g>
			<path class="st2" d="M260.8,145.3c-1.8,0.1-3.5-0.6-4.8-1.7c-0.5-0.4-1.2,0.3-0.7,0.7c1.5,1.3,3.5,2.1,5.5,2
				C261.4,146.3,261.5,145.3,260.8,145.3L260.8,145.3z"/>
		</g>
	</g>
	<g>
		<g>
			<path class="st2" d="M261.3,152.1c-2.1-0.3-4.1-1.4-5.4-3.1c-0.2-0.2-0.4-0.3-0.7-0.2c-0.2,0.1-0.3,0.5-0.2,0.7
				c1.5,1.9,3.6,3.3,6,3.6c0.3,0,0.5-0.1,0.6-0.3C261.7,152.5,261.6,152.1,261.3,152.1L261.3,152.1z"/>
		</g>
	</g>
	<g>
		<g>
			<path class="st2" d="M261.2,159.8c-1.9-0.1-3.6-0.8-5.1-1.9c-0.2-0.2-0.6,0-0.7,0.2c-0.2,0.3,0,0.5,0.2,0.7
				c1.6,1.2,3.6,1.9,5.6,2.1c0.3,0,0.5-0.2,0.5-0.5C261.7,160,261.5,159.9,261.2,159.8L261.2,159.8z"/>
		</g>
	</g>
	<g>
		<g>
			<path class="st2" d="M262.6,167.2c-1.7,0.5-3.6,0-4.9-1.3c-0.5-0.4-1.2,0.3-0.7,0.7c1.5,1.5,3.8,2.1,5.8,1.5
				C263.5,168,263.3,167,262.6,167.2L262.6,167.2z"/>
		</g>
	</g>
	<g>
		<g>
			<path class="st2" d="M263.6,173.3c-1.8-0.1-3.5-0.6-5.1-1.6c-0.6-0.3-1.1,0.5-0.5,0.9c1.7,1,3.6,1.6,5.6,1.7
				C264.2,174.3,264.2,173.3,263.6,173.3L263.6,173.3z"/>
		</g>
	</g>
	<g>
		<g>
			<path class="st2" d="M280,130.1c-3,10.9-4.2,22.4-3.5,33.7c0.2,3.2,0.6,6.3,1.1,9.5c0.1,0.6,1.1,0.4,1-0.3
				c-1.8-11.1-1.7-22.5,0.3-33.5c0.6-3.1,1.3-6.2,2.1-9.2C281.1,129.7,280.1,129.5,280,130.1L280,130.1z"/>
		</g>
	</g>
	<g>
		<g>
			<path class="st2" d="M278.6,135.7c-0.6,0-1.3-0.3-1.9-0.5c-0.6-0.3-1.1-0.7-1.6-1.3c-0.2-0.2-0.5-0.2-0.7,0
				c-0.2,0.2-0.2,0.5,0,0.7c1,1.2,2.5,2,4.1,2.1c0.3,0,0.5-0.2,0.5-0.5C279.1,135.9,278.9,135.7,278.6,135.7L278.6,135.7z"/>
		</g>
	</g>
	<g>
		<g>
			<path class="st2" d="M271.3,141.4c1.4,1.2,1.3,3.4,1.5,5c0.2,2.2,0.4,4.4,0.5,6.6c0.2,4.4,0.2,8.7-0.1,13.1
				c-0.1,2.5-0.3,5-0.6,7.5c-0.1,0.6,0.9,0.6,1,0c1-9.1,1.1-18.3,0.2-27.4c-0.2-1.9-0.2-4.2-1.8-5.5
				C271.5,140.2,270.8,140.9,271.3,141.4L271.3,141.4z"/>
		</g>
	</g>
	<g>
		<g>
			<path class="st2" d="M287.1,151.1c-3,7.3-4.1,15.4-3.3,23.2c0.1,0.6,1.1,0.6,1,0c-0.8-7.8,0.3-15.7,3.3-23
				C288.3,150.8,287.4,150.5,287.1,151.1L287.1,151.1z"/>
		</g>
	</g>
	<g>
		<g>
			<path class="st2" d="M302,157.8c-3.8,7.6-6.1,15.9-6.6,24.4c0,0.6,1,0.6,1,0c0.6-8.3,2.8-16.5,6.5-23.9
				C303.2,157.8,302.3,157.3,302,157.8L302,157.8z"/>
		</g>
	</g>
	<g>
		<g>
			<path class="st2" d="M253.7,156.6c0.8,1.3,0.9,2.8,1.1,4.3c0.2,1.6,0.4,3.2,0.6,4.8c0.4,3.2,0.9,6.5,1.3,9.7c0.1,0.6,1.1,0.6,1,0
				c-0.5-3.4-0.9-6.8-1.4-10.2c-0.2-1.6-0.4-3.3-0.7-4.9c-0.2-1.5-0.4-2.9-1.2-4.2C254.2,155.5,253.4,156,253.7,156.6L253.7,156.6z"
				/>
		</g>
	</g>
	<g>
		<g>
			<path class="st2" d="M277.4,141.8c-0.3-0.1-0.5-0.1-0.8-0.2c-0.1,0,0.1,0,0,0c0,0-0.1,0-0.1,0c-0.1,0-0.1-0.1-0.2-0.1
				c-0.1-0.1-0.2-0.1-0.4-0.2c-0.1,0-0.1-0.1-0.2-0.1c0,0,0,0-0.1,0c0,0-0.1-0.1-0.1,0c0.1,0,0,0-0.1,0c0,0,0,0-0.1-0.1
				c-0.1,0-0.1-0.1-0.2-0.1c-0.1-0.1-0.2-0.2-0.3-0.3c0-0.1-0.1-0.1-0.1-0.2c0,0,0,0-0.1-0.1c-0.1-0.1,0.1,0.1,0,0
				c-0.2-0.2-0.4-0.3-0.7-0.2c-0.2,0.1-0.3,0.5-0.2,0.7c0.8,1,1.8,1.7,3.1,2c0.3,0.1,0.6-0.1,0.6-0.3
				C277.8,142.2,277.6,141.9,277.4,141.8L277.4,141.8z"/>
		</g>
	</g>
	<g>
		<g>
			<path class="st2" d="M276.4,150c-0.3-0.3-0.7-0.5-1-0.8c0,0-0.1-0.1-0.2-0.1c-0.1,0-0.1,0-0.2,0c-0.1,0-0.3,0.1-0.4,0.1
				c-0.1,0.1-0.2,0.2-0.1,0.4c0,0.1,0,0.3,0.1,0.4c0.3,0.3,0.7,0.5,1,0.8c0,0,0.1,0.1,0.2,0.1c0.1,0,0.1,0,0.2,0
				c0.1,0,0.3-0.1,0.4-0.1c0.1-0.1,0.2-0.2,0.1-0.4C276.5,150.3,276.5,150.1,276.4,150L276.4,150z"/>
		</g>
	</g>
	<g>
		<g>
			<path class="st2" d="M277.1,169.9c-0.6-0.2-1.2-0.4-1.8-0.6c-0.2-0.1-0.6,0.1-0.6,0.3c-0.1,0.3,0.1,0.5,0.3,0.6
				c0.6,0.2,1.2,0.4,1.8,0.6c0.2,0.1,0.6-0.1,0.6-0.3C277.6,170.3,277.4,170,277.1,169.9L277.1,169.9z"/>
		</g>
	</g>
	<g>
		<g>
			<path class="st2" d="M297.3,144.7c-3.3,7.9-5.2,16.4-5.6,25c-0.1,2.4-0.2,4.8-1,7.1c-0.2,0.6,0.7,0.9,1,0.3c0.7-1.9,0.9-4,1-6
				c0.1-2.2,0.2-4.3,0.5-6.5c0.5-4.3,1.4-8.5,2.6-12.7c0.7-2.3,1.5-4.7,2.5-6.9C298.5,144.4,297.5,144.1,297.3,144.7L297.3,144.7z"
				/>
		</g>
	</g>
	<g>
		<g>
			<path class="st2" d="M295.2,148.9C295.1,148.9,295.2,148.9,295.2,148.9C295.2,148.9,295.1,148.9,295.2,148.9
				c-0.1,0-0.1-0.1-0.2-0.1c-0.1,0-0.2-0.1-0.3-0.1c-0.2-0.1-0.3-0.2-0.5-0.3c-0.1-0.1-0.2-0.1-0.2-0.2c0,0-0.1-0.1-0.1-0.1
				c-0.1,0,0.1,0.1,0,0c0,0,0,0-0.1,0c-0.2-0.1-0.3-0.3-0.5-0.4c-0.2-0.2-0.5-0.2-0.7,0c-0.2,0.2-0.2,0.5,0,0.7
				c0.6,0.6,1.4,1.1,2.2,1.5c0.1,0,0.3,0,0.4-0.1c0.1-0.1,0.2-0.2,0.2-0.3c0-0.1,0-0.3-0.1-0.4C295.4,149,295.3,149,295.2,148.9
				L295.2,148.9z"/>
		</g>
	</g>
	<g>
		<g>
			<path class="st2" d="M292.8,157.8C292.8,157.8,292.8,157.8,292.8,157.8c0,0-0.1,0-0.1,0c-0.1,0-0.1,0-0.2,0
				c-0.1,0-0.3-0.1-0.4-0.1c-0.1,0-0.3-0.1-0.4-0.1c-0.1,0,0,0,0,0c0,0-0.1,0-0.1,0c-0.1,0-0.1-0.1-0.2-0.1
				c-0.1-0.1-0.2-0.1-0.4-0.2c-0.1,0-0.1-0.1-0.2-0.1c0,0-0.1,0-0.1-0.1c0,0-0.1-0.1-0.1,0c0,0,0,0,0,0c0,0,0,0-0.1-0.1
				c-0.1,0-0.1-0.1-0.2-0.1c-0.1-0.1-0.2-0.2-0.3-0.3c-0.2-0.2-0.5-0.2-0.7,0c-0.2,0.2-0.2,0.5,0,0.7c0.9,1,2.1,1.5,3.3,1.7
				c0.3,0,0.5-0.3,0.5-0.5C293.3,158,293.1,157.8,292.8,157.8L292.8,157.8z"/>
		</g>
	</g>
	<g>
		<g>
			<path class="st2" d="M292.1,169.5c-1.5-0.1-3-0.6-4.2-1.6c-0.2-0.2-0.5-0.2-0.7,0c-0.2,0.2-0.2,0.5,0,0.7
				c1.4,1.1,3.1,1.8,4.9,1.9C292.7,170.5,292.7,169.5,292.1,169.5L292.1,169.5z"/>
		</g>
	</g>
	<g>
		<g>
			<path class="st2" d="M299.4,187.5c1.5-7.7,3.9-15.2,7.4-22.3c1-2,2-3.9,3.1-5.8c0.3-0.6-0.5-1.1-0.9-0.5
				c-4,6.8-7.1,14.2-9.2,21.8c-0.6,2.2-1.1,4.4-1.5,6.6C298.4,187.9,299.3,188.2,299.4,187.5L299.4,187.5z"/>
		</g>
	</g>
	<g>
		<g>
			<path class="st2" d="M307.6,162.7c-1-1.2-1.5-2.7-1.5-4.2c0-0.6-1-0.6-1,0c-0.1,1.8,0.6,3.5,1.8,4.9c0.2,0.2,0.5,0.2,0.7,0
				C307.8,163.2,307.8,162.9,307.6,162.7L307.6,162.7z"/>
		</g>
	</g>
	<g>
		<g>
			<path class="st2" d="M303.4,171.5c-0.8-1.1-1.3-2.5-1.5-3.9c0-0.3-0.2-0.5-0.5-0.5c-0.3,0-0.5,0.2-0.5,0.5
				c0.1,1.6,0.7,3.1,1.6,4.4c0.2,0.2,0.4,0.3,0.7,0.2C303.4,172.1,303.5,171.7,303.4,171.5L303.4,171.5z"/>
		</g>
	</g>
	<g>
		<g>
			<path class="st2" d="M299.7,181.1c-0.6-1-0.9-2.2-1-3.4c0-0.3-0.2-0.5-0.5-0.5c-0.3,0-0.5,0.2-0.5,0.5c0.1,1.4,0.5,2.7,1.1,3.9
				c0.1,0.2,0.5,0.3,0.7,0.2C299.8,181.6,299.9,181.3,299.7,181.1L299.7,181.1z"/>
		</g>
	</g>
	<g>
		<g>
			<path class="st2" d="M80,93.8c0.9-1.1,2.1-2.3,3.5-2.9c0.8-0.3,0.5,1,0.4,1.4c-0.2,0.8-0.5,1.5-0.9,2.2c-0.2,0.4,0.1,0.9,0.6,0.7
				c1-0.3,1.9-0.6,2.9-1c0.7-0.2,1.5-0.6,2.3-0.6c0.7-0.1,1.3,0.2,1.4,1c0,0.7-0.3,1.4-0.7,1.9c-1.7,2.4-4.8,3.3-7.5,4.2
				c-0.6,0.2-0.4,1.2,0.3,1c2.6-0.8,5.3-1.7,7.2-3.7c0.9-0.9,1.7-2,1.7-3.3c0-1.3-1.1-2.2-2.4-2.1c-0.8,0.1-1.6,0.4-2.3,0.6
				c-1,0.3-2,0.7-3.1,1c0.2,0.2,0.4,0.5,0.6,0.7c0.5-0.9,0.9-1.9,1.1-3c0.1-0.7,0.1-1.7-0.7-2.1c-0.9-0.4-2,0.5-2.6,0.9
				c-0.9,0.6-1.7,1.4-2.4,2.2C78.9,93.6,79.6,94.3,80,93.8L80,93.8z"/>
		</g>
	</g>
	<line class="st3" x1="26.8" y1="332.4" x2="123.6" y2="315.8"/>
	<path class="st1" d="M18.3,301.3l-1.8,2.6l9.2,29.8c0.4,0.5,1.5,1.5,3.2,1.8c3,0.6,5.3-1.3,5.5-1.6c2.4-10.5,4.7-20.9,7.1-31.4
		c-0.1-0.3-1.7-3.6-3.4-3.4c-1.3,0.2-2.1,2.5-2.9,5c-0.6,1.8-0.8,3.2-1.1,4.7c-0.2,1.2-1.4,8.5-1.6,8.4c-0.1,0,0.2-3.8,0.7-9.9
		c0.7-8.6,0.9-11.7-0.7-12.5c-1.1-0.6-2.4,0.2-2.6,0.3c-1.4,0.8-2.8,2.7-3.2,11.9c-0.2,6.4,0.3,11,0,11.1c-0.3,0-1.6-5.6-2.6-10.5
		c-0.7-3.4-1.1-5.9-2.9-6.6C20.2,300.7,19.1,301,18.3,301.3z"/>
	<g>
		<g>
			<path class="st2" d="M106.2,315.9c-1.6,1-2.8,2.7-3.1,4.5c0,0.3,0.1,0.5,0.3,0.6c0.2,0.1,0.6-0.1,0.6-0.3
				c0.3-1.6,1.2-3.1,2.7-3.9C107.2,316.5,106.7,315.6,106.2,315.9L106.2,315.9z"/>
		</g>
	</g>
	<g>
		<g>
			<path class="st2" d="M87.5,319.7c-1.6,1-2.8,2.6-3.2,4.5c-0.1,0.3,0.1,0.5,0.3,0.6c0.2,0.1,0.6-0.1,0.6-0.3
				c0.4-1.6,1.3-3,2.8-3.9C88.5,320.2,88,319.3,87.5,319.7L87.5,319.7z"/>
		</g>
	</g>
	<g>
		<g>
			<path class="st2" d="M69.6,322.1c-1.9,0.9-3.1,3-3.1,5.1c0,0.6,1,0.6,1,0c0-1.8,1-3.4,2.6-4.2c0.2-0.1,0.3-0.5,0.2-0.7
				C70.1,322,69.8,322,69.6,322.1L69.6,322.1z"/>
		</g>
	</g>
	<g>
		<g>
			<path class="st2" d="M50.7,326.3c-1.3,1.2-2.3,2.7-3,4.3c-0.1,0.3,0.1,0.5,0.3,0.6c0.3,0.1,0.5-0.1,0.6-0.3
				c0.6-1.5,1.5-2.8,2.7-3.9c0.2-0.2,0.2-0.5,0-0.7C51.2,326.1,50.9,326.1,50.7,326.3L50.7,326.3z"/>
		</g>
	</g>
	<g>
		<g>
			<path class="st2" d="M38.3,327.9c-1.2,1.3-1.9,3.1-1.7,4.8c0,0.3,0.2,0.5,0.5,0.5c0.3,0,0.5-0.2,0.5-0.5c-0.1-1.5,0.4-3,1.4-4.1
				C39.4,328.1,38.7,327.4,38.3,327.9L38.3,327.9z"/>
		</g>
	</g>
	<g>
		<g>
			<path class="st2" d="M20.2,310.7c0.9-0.4,1.8-0.8,2.7-1.2c0.2-0.1,0.3-0.5,0.2-0.7c-0.2-0.2-0.4-0.3-0.7-0.2
				c-0.9,0.4-1.8,0.8-2.7,1.2c-0.2,0.1-0.3,0.5-0.2,0.7C19.6,310.8,19.9,310.8,20.2,310.7L20.2,310.7z"/>
		</g>
	</g>
	<g>
		<g>
			<path class="st2" d="M22,318.6c1.1,0.5,2.4,0.3,3.2-0.6c0.2-0.2,0.2-0.5,0-0.7c-0.2-0.2-0.5-0.2-0.7,0c-0.1,0.1-0.1,0.2-0.2,0.2
				c0,0-0.1,0.1,0,0c0.1,0,0,0,0,0c0,0-0.1,0.1-0.1,0.1c0,0-0.1,0.1-0.1,0.1c0,0-0.1,0-0.1,0c-0.1,0,0.1,0,0,0
				c-0.1,0-0.2,0.1-0.3,0.1c0,0,0,0-0.1,0c0,0-0.1,0,0,0c0.1,0,0,0,0,0c0,0-0.1,0-0.1,0c-0.1,0-0.2,0-0.3,0c0,0-0.1,0,0,0
				c0.1,0,0,0,0,0c-0.1,0-0.1,0-0.2,0c-0.1,0-0.1,0-0.2-0.1c-0.1,0,0,0,0,0c0,0-0.1,0-0.1,0c-0.2-0.1-0.6-0.1-0.7,0.2
				C21.7,318.2,21.8,318.5,22,318.6L22,318.6z"/>
		</g>
	</g>
	<g>
		<g>
			<path class="st2" d="M27.8,306.4c1.1,1.1,3,1.3,4.3,0.4c0.2-0.2,0.3-0.4,0.2-0.7c-0.1-0.2-0.5-0.3-0.7-0.2
				c-0.1,0.1-0.3,0.2-0.4,0.2c0,0-0.1,0.1-0.1,0c0,0-0.1,0-0.1,0c-0.1,0-0.1,0-0.2,0.1c-0.1,0-0.1,0-0.2,0c-0.1,0,0,0,0,0
				c0,0-0.1,0-0.1,0c-0.2,0-0.3,0-0.5,0c-0.1,0-0.2,0-0.4-0.1c-0.1,0-0.1,0-0.2-0.1c0,0-0.1,0-0.1,0c0,0-0.1,0,0,0
				c-0.1-0.1-0.3-0.1-0.4-0.2c0,0-0.1,0-0.1-0.1c0,0,0,0,0,0c-0.1-0.1-0.1-0.1-0.2-0.2C28,305.2,27.3,305.9,27.8,306.4L27.8,306.4z"
				/>
		</g>
	</g>
	<g>
		<g>
			<path class="st2" d="M27.7,315c1.4,0.4,2.9,0.1,4.1-0.6c0.2-0.1,0.3-0.4,0.2-0.7c-0.1-0.2-0.5-0.3-0.7-0.2
				c-1,0.6-2.2,0.8-3.3,0.5c-0.3-0.1-0.5,0.1-0.6,0.3C27.3,314.7,27.4,314.9,27.7,315L27.7,315z"/>
		</g>
	</g>
	<g>
		<g>
			<path class="st2" d="M35,308.2c0.6,1.2,1.7,2.2,3,2.6c0.2,0.1,0.6-0.1,0.6-0.3c0.1-0.3-0.1-0.5-0.3-0.6c-0.1,0-0.1,0-0.2-0.1
				c0,0-0.1,0-0.1,0c-0.1,0,0.1,0,0,0c-0.1-0.1-0.3-0.1-0.4-0.2c-0.1-0.1-0.2-0.1-0.4-0.2c0,0-0.1,0-0.1-0.1c0,0-0.1-0.1,0,0
				c-0.1,0-0.1-0.1-0.2-0.1c-0.1-0.1-0.2-0.2-0.3-0.3c-0.1-0.1-0.1-0.1-0.1-0.2c0,0,0-0.1-0.1-0.1c0,0-0.1-0.1,0,0
				c-0.2-0.2-0.3-0.5-0.5-0.8c-0.1-0.2-0.5-0.3-0.7-0.2C34.9,307.7,34.9,307.9,35,308.2L35,308.2z"/>
		</g>
	</g>
	<g>
		<g>
			<path class="st2" d="M33.9,316.6c0.6,0.4,1.2,0.7,1.8,1.1c0.2,0.1,0.6,0.1,0.7-0.2c0.1-0.2,0.1-0.5-0.2-0.7
				c-0.6-0.4-1.2-0.7-1.8-1.1c-0.2-0.1-0.6-0.1-0.7,0.2C33.6,316.1,33.6,316.4,33.9,316.6L33.9,316.6z"/>
		</g>
	</g>
	<line class="st3" x1="331.4" y1="349.9" x2="237.6" y2="321"/>
	<path class="st1" d="M343.8,320.1l1.5,2.9l-13,28.4c-0.5,0.4-1.7,1.3-3.4,1.4c-3,0.3-5.1-2-5.3-2.3c-1-10.7-2-21.4-3-32
		c0.2-0.3,2.2-3.4,3.8-3c1.3,0.3,1.8,2.8,2.2,5.3c0.3,1.9,0.4,3.2,0.4,4.8c0,1.2,0.3,8.6,0.5,8.6c0.1,0,0.3-3.8,0.6-9.9
		c0.4-8.6,0.6-11.7,2.3-12.3c1.1-0.4,2.4,0.5,2.6,0.6c1.3,0.9,2.5,3.1,1.6,12.2c-0.6,6.4-1.7,10.9-1.4,11c0.3,0.1,2.3-5.3,4-10.1
		c1.1-3.3,1.9-5.7,3.7-6.2C342,319.2,343.1,319.7,343.8,320.1z"/>
	<g>
		<g>
			<path class="st2" d="M264,327.5c1.3,1.1,2.1,2.7,2.2,4.4c0,0.6,1,0.6,1,0c0-1.9-0.9-3.9-2.5-5.1c-0.2-0.2-0.5-0.2-0.7,0
				C263.8,327,263.7,327.4,264,327.5L264,327.5z"/>
		</g>
	</g>
	<g>
		<g>
			<path class="st2" d="M272.2,330.1c1.3,1,2.1,2.5,2.3,4.2c0,0.3,0.2,0.5,0.5,0.5c0.3,0,0.5-0.2,0.5-0.5c-0.2-1.9-1.1-3.7-2.6-4.9
				c-0.2-0.2-0.5-0.2-0.7,0C272.1,329.6,272,330,272.2,330.1L272.2,330.1z"/>
		</g>
	</g>
	<g>
		<g>
			<path class="st2" d="M289.8,335c1.4,0.9,2.3,2.7,2,4.4c0,0.3,0.1,0.5,0.3,0.6c0.2,0.1,0.6-0.1,0.6-0.3c0.3-2.2-0.7-4.3-2.5-5.5
				C289.8,333.7,289.3,334.6,289.8,335L289.8,335z"/>
		</g>
	</g>
	<g>
		<g>
			<path class="st2" d="M307.7,341.4c1,1.2,1.8,2.7,2.2,4.2c0.2,0.6,1.1,0.4,1-0.3c-0.4-1.7-1.3-3.3-2.4-4.7c-0.2-0.2-0.5-0.2-0.7,0
				C307.5,340.9,307.6,341.2,307.7,341.4L307.7,341.4z"/>
		</g>
	</g>
	<g>
		<g>
			<path class="st2" d="M319.8,344.4c0.9,1.2,1.3,2.8,0.9,4.3c-0.1,0.3,0.1,0.5,0.3,0.6c0.2,0.1,0.6-0.1,0.6-0.3c0.4-1.7,0-3.6-1-5
				c-0.2-0.2-0.4-0.3-0.7-0.2C319.8,343.9,319.6,344.2,319.8,344.4L319.8,344.4z"/>
		</g>
	</g>
	<g>
		<g>
			<path class="st2" d="M341.4,328.4c-0.8-0.5-1.7-1-2.5-1.5c-0.2-0.1-0.6-0.1-0.7,0.2c-0.1,0.2-0.1,0.5,0.2,0.7
				c0.8,0.5,1.7,1,2.5,1.5c0.2,0.1,0.6,0.1,0.7-0.2C341.7,328.8,341.6,328.5,341.4,328.4L341.4,328.4z"/>
		</g>
	</g>
	<g>
		<g>
			<path class="st2" d="M337.6,335.9c-0.1,0-0.2,0.1-0.3,0.1c-0.1,0,0.1,0,0,0c0,0-0.1,0-0.1,0c-0.1,0-0.1,0-0.2,0
				c-0.1,0-0.1,0-0.2,0c0,0-0.1,0,0,0c0.1,0,0,0,0,0c-0.1,0-0.2,0-0.3-0.1c0,0,0,0-0.1,0c-0.1,0,0,0,0,0c0,0-0.1-0.1-0.2-0.1
				c0,0-0.1-0.1-0.1-0.1c0,0,0,0-0.1,0c0,0-0.1-0.1,0,0c0.1,0,0,0,0,0c0,0,0,0-0.1,0c0,0-0.1-0.1-0.1-0.1c0,0,0,0-0.1-0.1
				c0,0,0-0.1,0,0c0,0-0.1-0.1-0.1-0.1c-0.1-0.2-0.5-0.3-0.7-0.2c-0.2,0.1-0.3,0.4-0.2,0.7c0.6,1,1.9,1.5,3.1,1.1
				c0.2-0.1,0.4-0.3,0.3-0.6C338.1,336,337.9,335.8,337.6,335.9L337.6,335.9z"/>
		</g>
	</g>
	<g>
		<g>
			<path class="st2" d="M333.2,323.2C333.2,323.2,333.1,323.2,333.2,323.2c-0.1,0-0.1,0.1-0.1,0.1c-0.1,0-0.1,0.1-0.2,0.1
				c0,0-0.1,0-0.1,0c-0.1,0.1,0,0,0,0c-0.1,0-0.1,0.1-0.2,0.1c-0.1,0-0.1,0-0.2,0.1c0,0-0.1,0-0.1,0c0,0-0.1,0,0,0
				c-0.2,0-0.3,0-0.5,0c-0.1,0-0.1,0-0.2,0c0.1,0,0,0,0,0c0,0-0.1,0-0.1,0c-0.2,0-0.3-0.1-0.4-0.1c0,0-0.1,0,0,0c0,0-0.1,0-0.1,0
				c-0.1,0-0.1-0.1-0.2-0.1c-0.2-0.1-0.2-0.1-0.3-0.2c-0.2-0.2-0.5-0.2-0.7,0c-0.2,0.2-0.2,0.5,0,0.7c1.2,1.1,3.1,1.2,4.4,0.2
				c0.2-0.2,0.2-0.5,0-0.7C333.7,323,333.4,323,333.2,323.2L333.2,323.2z"/>
		</g>
	</g>
	<g>
		<g>
			<path class="st2" d="M332.7,331.5c-1.2,0.2-2.3-0.2-3.2-0.9c-0.2-0.2-0.5-0.2-0.7,0c-0.2,0.2-0.2,0.5,0,0.7
				c1.1,0.9,2.5,1.4,3.9,1.2c0.3,0,0.5-0.2,0.5-0.5C333.2,331.8,333,331.5,332.7,331.5L332.7,331.5z"/>
		</g>
	</g>
	<g>
		<g>
			<path class="st2" d="M325.6,324.2c0,0.1-0.1,0.1-0.1,0.2c0,0,0,0-0.1,0.1c0.1-0.1,0,0,0,0c-0.1,0.1-0.2,0.2-0.3,0.3
				c-0.1,0.1-0.2,0.2-0.3,0.3c0,0,0,0-0.1,0.1c0.1-0.1,0,0,0,0c-0.1,0-0.1,0.1-0.2,0.1c-0.1,0.1-0.2,0.2-0.4,0.2
				c-0.1,0-0.1,0.1-0.2,0.1c0,0-0.1,0-0.1,0c0.1,0,0,0,0,0c-0.3,0.1-0.6,0.2-0.9,0.2c-0.3,0-0.4,0.4-0.3,0.6
				c0.1,0.3,0.3,0.4,0.6,0.3c1.3-0.2,2.5-1.1,3.3-2.2c0.1-0.2,0.1-0.6-0.2-0.7C326,323.9,325.7,324,325.6,324.2L325.6,324.2z"/>
		</g>
	</g>
	<g>
		<g>
			<path class="st2" d="M326,332.3c-0.7,0.3-1.3,0.6-2,0.8c-0.1,0-0.2,0.2-0.2,0.3c0,0.1,0,0.3,0.1,0.4c0.1,0.1,0.2,0.2,0.3,0.2
				c0.1,0,0.3,0,0.4-0.1c0.7-0.3,1.3-0.6,2-0.8c0.1,0,0.2-0.2,0.2-0.3c0-0.1,0-0.3-0.1-0.4c-0.1-0.1-0.2-0.2-0.3-0.2
				C326.2,332.3,326.1,332.3,326,332.3L326,332.3z"/>
		</g>
	</g>
	<path class="st1" d="M39.8,268.7c-1.1,0.7-0.5,6,2.1,6.6c1.2,0.3,2.8-0.5,3.2-1.6C45.7,271.5,41,267.9,39.8,268.7z"/>
	<path class="st1" d="M44.3,266.9c-0.2-1.2,3.3-3.9,5.3-2.6c1,0.6,1.6,2.3,1.1,3.2C49.6,269.1,44.5,268.2,44.3,266.9z"/>
	<path class="st1" d="M284.8,359.4c0.4-1.3-4.2-5.6-8.2-4.2c-1.4,0.5-3.1,1.8-2.9,2.9C274.2,360.4,284.2,361.2,284.8,359.4z"/>
	<path class="st1" d="M293.8,359.4c1.8,0.1,3.7-2.9,2.9-4.5c-0.8-1.6-4.3-1.8-5.3-0.3C290.4,356.2,292,359.3,293.8,359.4z"/>
	<path class="st4" d="M1,37.1C-2.2,40,2.3,57,13.2,59.6c5.9,1.4,11.2-2.1,11.6-2.4c4.9-3.3,6.1-8.4,6.3-9.5
		c-0.6,3.3,0.3,5.9,1.8,6.6c1.6,0.7,3.9-0.9,5-2.4c4.6-6.2-3.1-22.3-9.5-22.4c-1.3,0-3,0.6-3.7,1.8c-1.3,2.4,1.9,4.8,2.4,9.5
		c0.4,3.6-0.9,8.8-4.7,10.8c-4,2.1-9.9,0.3-12.4-3.2c-2.7-3.8-0.3-8-3.4-10.5C5,36.6,2.2,36.1,1,37.1z"/>
	<path class="st4" d="M72.6,17.4c-3.8,2-3.2,19.6,6.9,24.6c5.5,2.7,11.3,0.5,11.8,0.3c5.5-2.2,7.8-6.8,8.3-7.9
		c-1.3,3.1-1.1,5.9,0.3,6.8c1.4,1,4,0,5.4-1.2c5.8-5,1.9-22.4-4.3-24c-1.3-0.3-3-0.1-4,1c-1.8,2,0.8,5.2,0.2,9.8
		c-0.5,3.6-2.8,8.3-7,9.5c-4.4,1.2-9.7-1.9-11.4-5.8c-1.8-4.3,1.5-7.9-1-11C76.5,17.8,74,16.7,72.6,17.4z"/>
	<path class="st4" d="M152.8,10.3c-4.2,0.9-8.7,17.9-0.6,25.5c4.4,4.2,10.7,3.7,11.3,3.7c5.9-0.5,9.4-4.3,10.2-5.1
		c-2.1,2.6-2.7,5.3-1.7,6.6c1.1,1.4,3.8,1.2,5.5,0.4c7.1-3.1,8.3-20.9,2.9-24.2c-1.1-0.7-2.9-1-4.1-0.2c-2.3,1.4-0.7,5.2-2.6,9.4
		c-1.5,3.3-5.1,7.2-9.5,7c-4.6-0.1-8.8-4.7-9.2-8.9c-0.5-4.6,3.7-7.1,2.2-10.9C156.5,11.8,154.4,9.9,152.8,10.3z"/>
	<path class="st4" d="M46.4,23.2c-1.6,0.4-2.8,2.3-2.7,4c0.1,1.8,1.6,2.9,2.4,3.7c6,5.6,1.4,14.9,6.3,17.1c1.5,0.7,3.7,0.7,4.8-0.3
		c3.1-2.7-5.7-10.9-2.1-16.4c1.6-2.4,4-2,6.6-5.8c1.6-2.4,2.6-5.3,1.8-5.8c-1.4-0.9-6.5,6.5-11.7,5.5C49.2,24.8,48.3,22.7,46.4,23.2
		z"/>
	<path class="st4" d="M120.2,10.7c-1.7,0.1-3.3,1.8-3.6,3.5c-0.3,1.8,1,3.4,1.6,4.3c4.9,7.1-1.8,15.7,2.7,19.1
		c1.3,1,3.6,1.5,4.9,0.7c3.7-2.1-3.4-12.5,1.4-17.4c2.1-2.1,4.5-1.3,7.9-4.6c2.2-2.1,3.8-4.9,3.1-5.6c-1.2-1.2-7.9,5.4-13,3.3
		C122.8,13,122.3,10.6,120.2,10.7z"/>
	<path class="st4" d="M211.2,17.6c-2.4-1.9-1.4-9.9,3.2-14.2c6.7-6.4,18.1-1.9,18.7-1.6c1.2,0.5,11.7,5,11.9,13.5
		c0.1,4.8-3.3,10.2-7.6,12.1c-2.8,1.2-7.9,1.8-10.5,4c-0.5,0.4-1.3,1-1.6,2.1c-0.4,1.4,0.5,2.3,0,2.9c-0.7,0.9-3.7,0.5-4.7-1.1
		c-1.3-2,0.2-5.9,2.6-8.2c4-3.8,8.3-1.2,11.6-4.7c2.1-2.3,2.9-6.2,1.6-9c-1.5-3.2-5.2-4.1-8.7-5c-2.2-0.5-4.9-1.2-7.9,0
		c-0.4,0.2-4.4,1.8-4.5,4.2c-0.1,1.7,1.9,2.5,1.6,3.7C216.4,17.8,212.8,18.8,211.2,17.6z"/>
	<path class="st4" d="M212.5,46.4c1-2.1,5-2.8,7.4-1.1c0.2,0.1,1.9,1.4,1.8,3.4c-0.1,2.3-2.4,4.2-4.5,4.2
		C214.1,53,211.4,48.7,212.5,46.4z"/>
</g>
<g id="Слой_3">
	<path class="st2" d="M109.5,159.7c0,0-17.2,2.3-34.1-19.8c-0.9-1.1-2-2.8-1.5-4.4c0.6-1.9,3.2-2.6,4.2-2.9c7.8-2.2,18,3.5,18.8,4
		c9.9,5.7,20.4,16.5,18,21C114,159.1,111.9,159.4,109.5,159.7z"/>
	<path class="st2" d="M101,85.6c1.5-4.8,20.6-5.6,35.6,2c5.1,2.6,15.5,9.1,14.3,13.1c-1.6,5.1-23.3,5.6-39.3-4.2
		C109.1,95,99.8,89.3,101,85.6z"/>
</g>
<g id="Слой_4">
	<path class="st1" d="M93.5,140.3c3.4,1.3,7.7,3,10.3,7.3c0.6,0.9,2.6,4.3,1.4,6.1c-1.3,1.8-5.3,1-7.9,0.4
		c-3.6-0.8-6.1-2.3-11.1-5.3c-4.3-2.6-5.4-3.8-5.9-5.5c-0.1-0.4-0.8-2.7,0.4-4.2C82.9,136.3,90.5,139.2,93.5,140.3z"/>
	<path class="st1" d="M127.8,96.5c-3.6-0.4-8.2-0.9-11.8-4.4c-0.8-0.7-3.7-3.5-2.9-5.6c0.8-2.1,4.9-2.3,7.5-2.5
		c3.7-0.2,6.5,0.6,12.1,2.2c4.8,1.4,6.3,2.2,7.2,3.8c0.2,0.4,1.5,2.4,0.7,4.1C139,97.7,130.9,96.8,127.8,96.5z"/>
	<path class="st2" d="M111.6,121.3c16.9-5,33.9-10,50.8-14.9c-3.2,14.5-6.7,29-10.4,43.5c-0.2,0.6-2.2,0.6-3.1,0
		c-12.5-8.9-25-17.7-37.5-26.6C110.8,122.8,110.9,121.5,111.6,121.3z"/>
	<line class="st5" x1="133" y1="138.6" x2="162.4" y2="106.3"/>
</g>
</svg>
