<svg width="24" height="24" viewBox="0 0 24 24" fill="none" xmlns="http://www.w3.org/2000/svg">
<path fill-rule="evenodd" clip-rule="evenodd" d="M18.8335 12.5C18.8335 11.8096 19.3932 11.25 20.0835 11.25H20.0983C20.7886 11.25 21.3483 11.8096 21.3483 12.5C21.3483 13.1904 20.7886 13.75 20.0983 13.75H20.0835C19.3932 13.75 18.8335 13.1904 18.8335 12.5Z" fill="#363538"/>
<path fill-rule="evenodd" clip-rule="evenodd" d="M10.6972 12.5C10.6972 11.8096 11.2568 11.25 11.9472 11.25H11.9619C12.6522 11.25 13.2119 11.8096 13.2119 12.5C13.2119 13.1904 12.6522 13.75 11.9619 13.75H11.9472C11.2568 13.75 10.6972 13.1904 10.6972 12.5Z" fill="#363538"/>
<path fill-rule="evenodd" clip-rule="evenodd" d="M2.56079 12.5C2.56079 11.8096 3.12044 11.25 3.81079 11.25H3.82552C4.51587 11.25 5.07552 11.8096 5.07552 12.5C5.07552 13.1904 4.51587 13.75 3.82552 13.75H3.81079C3.12044 13.75 2.56079 13.1904 2.56079 12.5Z" fill="#363538"/>
</svg>
